# xmcd CD database file
#
# Track frame offsets:
#	150
#	24202
#	38448
#	53703
#	75921
#	88740
#	105156
#	120860
#	138991
#	158053
#	172420
#
# Disc length: 2502 seconds
#
# Revision: 0
# Processed by: cddbd v1.5.2PL0 Copyright (c) Steve Scherf et al.
# Submitted via: CDex 1.70beta2
#
DISCID=7009c40b
DTITLE=Country Fried - Saint of New Orleans
DYEAR=2007
DGENRE=Country
TTITLE0=Boxcars
TTITLE1=Born a Bastard
TTITLE2=Saint of New Orleans
TTITLE3=Lawrence and Nina
TTITLE4=Wish I Was in Love
TTITLE5=My Bartender
TTITLE6=Dig Mr. Person
TTITLE7=Hope's Song
TTITLE8=Midnight Country Blues
TTITLE9=Giddy Up
TTITLE10=Fade Into the Sun
EXTD=YEAR: 2007
EXTT0=
EXTT1=
EXTT2=
EXTT3=
EXTT4=
EXTT5=
EXTT6=
EXTT7=
EXTT8=
EXTT9=
EXTT10=
PLAYORDER=
